<?xml version="1.0" encoding="utf-8"?>
<!-- Generator: Adobe Illustrator 16.0.2, SVG Export Plug-In . SVG Version: 6.00 Build 0)  -->
<!DOCTYPE svg PUBLIC "-//W3C//DTD SVG 1.1//EN" "http://www.w3.org/Graphics/SVG/1.1/DTD/svg11.dtd">
<svg version="1.1" id="Layer_1" xmlns="http://www.w3.org/2000/svg" xmlns:xlink="http://www.w3.org/1999/xlink" x="0px" y="0px"
	 width="500px" height="500px" viewBox="0 0 500 500" enable-background="new 0 0 500 500" xml:space="preserve">
<polygon points="200.053,328.709 138.615,214.35 202.384,101.38 327.596,102.791 389.039,217.163 325.271,330.125 "/>
<polygon fill="#FFFFFF" points="210.596,312.393 157.365,215.759 210.596,119.113 317.061,119.113 370.281,215.759 317.061,312.393 
	"/>
<polygon fill="none" stroke="#000000" stroke-miterlimit="10" points="215.194,304.059 166.572,215.759 215.194,127.462 
	312.448,127.462 361.084,215.759 312.448,304.059 "/>
<polygon stroke="#000000" stroke-miterlimit="10" points="263.824,215.759 215.194,127.462 166.572,215.759 "/>
<polygon stroke="#000000" stroke-miterlimit="10" points="361.084,215.759 312.472,127.462 263.824,215.759 "/>
<polygon stroke="#000000" stroke-miterlimit="10" points="313.677,304.059 265.049,215.759 216.422,304.059 "/>
<g>
	<path d="M118.104,353.867c-0.133,0-0.26-0.314-0.26-0.543c0-0.082,0-0.189,0.127-0.189c1.939-0.23,6.788-0.613,10.472-0.613
		c9.247,0,14.618,4.119,14.618,12.486c0,9.563-6.549,15.143-15.287,15.143c-1.267,0-4.011-0.068-4.987-0.068
		c-1.64,0-3.385,0.023-4.475,0.068c-0.132,0-0.132-0.045-0.132-0.133c0-0.199,0.08-0.539,0.212-0.539l1.853-0.387
		c0.302-0.037,0.522-0.16,0.522-0.658c0.08-1.736-0.053-10.277-0.089-12.154c0-1.934-0.131-10.227-0.177-11.58
		c0-0.455-0.083-0.645-0.424-0.654L118.104,353.867z M128.022,379.357c3.671,0,8.489-3.152,8.489-14.217
		c0-7.027-2.961-11.766-8.365-11.766c-0.755,0-0.927,0.205-0.966,0.736c-0.295,3.021-0.716,23.133-0.63,24.449
		c0,0.494,0.55,0.797,1.436,0.797H128.022z"/>
	<path d="M164.698,380.082c-0.041,0.117-0.122,0.201-0.341,0.201c-0.294,0-1.259-0.051-3.371-0.133
		c-2.112-0.045-5.32-0.068-10.136-0.068c-1.651,0-3.765,0.023-5.157,0.068c-0.125,0-0.125-0.045-0.125-0.068
		c0-0.199,0.085-0.508,0.213-0.559l1.95-0.432c0.288-0.082,0.451-0.225,0.451-0.709c0.045-1.311-0.042-10.318-0.042-12.311
		c-0.041-1.727-0.121-10.02-0.211-11.465c0-0.553-0.17-0.713-0.41-0.818l-1.738-0.332c-0.089,0-0.213-0.322-0.213-0.619
		c0-0.039,0-0.09,0.085-0.09c1.003,0,1.979,0.051,2.867,0.051c0.885,0,1.689,0,2.369,0c9.423,0,12.666-0.145,13.173-0.145
		c0.172,0,0.261,0.094,0.261,0.27l0.285,5.803c0,0.121-0.374,0.35-0.5,0.35c-0.046,0-0.08,0-0.124-0.084
		c-0.591-1.379-1.174-2.701-1.809-4.107c-0.212-0.414-0.548-0.549-1.068-0.641c-1.862-0.377-5.532-0.691-6.165-0.691
		c-0.429,0.027-0.476,0.17-0.476,0.492c-0.194,2.678-0.449,9.723-0.408,11.189c2.907,0.127,7.649,0.215,8.751,0.262
		c0.075,0,0.075,0.061,0.075,0.088c0,0.258-0.212,0.75-0.334,0.75c-1.65,0.184-5.842,0.418-8.036,0.625
		c-0.376,0.047-0.496,0.135-0.496,0.488c-0.042,1.455-0.215,9.881-0.215,11.113c0,0.494,0.173,0.572,0.47,0.572
		c1.813,0,5.646-0.184,7.722-0.75c0.421-0.133,0.714-0.359,0.889-0.658c0.843-1.201,1.61-2.443,2.328-3.689
		c0.027-0.08,0.074-0.08,0.12-0.08c0.167,0.047,0.501,0.34,0.46,0.539L164.698,380.082z"/>
	<path d="M186.842,371.645c0,5.146-4.651,8.771-12.836,8.771c-1.738,0-3.713-0.133-4.649-0.492c-0.202-0.068-0.34-0.162-0.372-0.445
		l-0.642-5.992c-0.04-0.156,0.428-0.455,0.553-0.455c0.089,0,0.122,0.045,0.168,0.123c0.798,1.5,1.558,3.115,2.353,4.521
		c0.307,0.49,0.522,0.707,1.031,1.012c0.672,0.51,1.73,0.707,2.873,0.707c3.625,0,6.381-1.85,6.381-4.74
		c0-2.65-1.818-4.24-6.17-5.967c-4.489-1.773-6.716-3.945-6.716-7.301c0-4.664,5.225-8.947,12.239-8.947
		c1.732,0,3.429,0.215,4.188,0.625c0.211,0.07,0.292,0.178,0.292,0.393l0.506,5.752c0,0.143-0.375,0.387-0.543,0.387
		c-0.08,0-0.133,0-0.174-0.078c-0.802-1.594-1.598-3.199-2.457-4.736c-0.163-0.311-0.338-0.537-0.786-0.787
		c-0.553-0.326-1.238-0.537-2.297-0.537c-2.991,0-5.564,2.047-5.564,4.814c0,2.391,1.611,3.742,5.194,5.59
		c3.96,1.898,7.429,3.902,7.429,7.754V371.645z"/>
	<path d="M200.546,352.799c0.076,0,0.076,0.039,0.076,0.178c0,0.158-0.043,0.576-0.211,0.604l-1.644,0.314
		c-0.294,0.045-0.421,0.262-0.421,0.621c-0.216,2.832-0.33,10.148-0.385,12.182c-0.032,1.631-0.161,11.289-0.161,11.863
		c0,0.371,0.161,0.449,0.462,0.531l1.737,0.387c0.166,0.045,0.246,0.377,0.246,0.539c0,0.088-0.037,0.133-0.127,0.133
		c-0.717-0.045-2.983-0.068-5.357-0.068c-2.201,0-4.105,0.023-5.071,0.068c-0.09,0-0.09-0.045-0.09-0.133
		c0-0.199,0.09-0.539,0.214-0.566l1.945-0.396c0.301-0.045,0.381-0.188,0.381-0.576c0.043-1.781-0.08-9.26-0.12-12.256
		c-0.041-3.207-0.139-10.17-0.226-11.441c0-0.473-0.116-0.787-0.463-0.887l-1.599-0.314c-0.133-0.027-0.213-0.293-0.213-0.656
		c0-0.086,0-0.125,0.081-0.125H200.546z"/>
	<path d="M227.083,368.207c0.078,0,0.078,0.045,0.078,0.078c0,0.258-0.078,0.535-0.211,0.574l-1.6,0.359
		c-0.301,0.045-0.388,0.217-0.433,0.566c-0.171,2.096-0.293,6.795-0.375,9.521c0,0.217-0.091,0.373-0.256,0.416
		c-1.615,0.561-4.177,0.693-7.388,0.693c-7.897,0-13.854-3.438-13.854-12.293c0-5.4,2.105-9.396,4.938-11.832
		c3.088-2.783,6.974-3.852,10.987-3.852c2.275,0,4.051,0.359,4.93,0.803c0.216,0.082,0.257,0.266,0.257,0.48l0.296,5.713
		c0,0.16-0.337,0.414-0.502,0.414c-0.094,0-0.134,0-0.171-0.148c-0.759-1.633-1.527-3.277-2.319-4.971
		c-0.134-0.26-0.337-0.574-0.553-0.791c-0.423-0.359-1.059-0.652-1.978-0.652c-2.118,0-4.304,1.049-5.882,3.086
		c-1.978,2.703-3.293,6.299-3.293,11.301c0,7.123,3.804,11.9,8.241,11.9c0.414,0,0.935-0.123,1.146-0.309
		c0.161-0.133,0.248-0.334,0.248-0.705c-0.037-1.582-0.17-6.998-0.381-8.854c0-0.322-0.125-0.443-0.419-0.488l-2.636-0.359
		c-0.154,0-0.242-0.316-0.242-0.531c0-0.076,0-0.121,0.088-0.121H227.083z"/>
	<path d="M235.705,352.799c0.215,0,0.338,0.105,0.421,0.207c2.247,3.152,9.381,14.975,12.424,19.707
		c0.243,0.498,0.505,0.988,0.753,1.416l0.181-0.127c0-0.699-0.042-1.379-0.042-1.998c-0.088-3.316-0.256-14.158-0.593-17.305
		c-0.056-0.543-0.254-0.76-0.681-0.832l-2.32-0.359c-0.13-0.051-0.22-0.4-0.22-0.584c0-0.086,0-0.125,0.09-0.125h8.162
		c0.127,0,0.127,0.039,0.127,0.125c0,0.184-0.101,0.533-0.226,0.584l-1.563,0.359c-0.425,0.072-0.59,0.289-0.669,1.045
		c-0.138,1.512-0.469,8.328-0.593,11.605c-0.124,2.48-0.341,11.695-0.381,13.301c0,0.17-0.093,0.264-0.255,0.332
		c-0.464,0.133-1.472,0.348-1.974,0.348c-0.395,0-0.776-0.082-1.108-0.51c-3.459-4.389-9.508-12.895-12.827-17.582
		c-0.184-0.26-0.479-0.762-0.644-1.02l-0.209,0.027c-0.041,0.639-0.041,1.119-0.041,1.473c-0.17,3.336-0.558,12.713-0.603,15.496
		c-0.037,0.445,0.133,0.566,0.433,0.672l2.695,0.469c0.121,0.051,0.209,0.295,0.209,0.494c0,0.088,0,0.133-0.126,0.133
		c-0.638-0.045-2.153-0.068-3.796-0.068c-1.478,0-2.796,0.023-3.516,0.068c-0.083,0-0.083-0.045-0.083-0.133
		c0-0.162,0.083-0.494,0.216-0.494l2.16-0.469c0.293-0.045,0.454-0.188,0.454-0.672c0-1.283-0.252-9.119-0.295-11.604
		c-0.04-1.955-0.294-10.621-0.382-11.998c-0.032-0.473-0.16-0.787-0.625-0.887l-1.688-0.342c-0.129-0.045-0.223-0.361-0.223-0.629
		c0-0.086,0-0.125,0.139-0.125H235.705z"/>
	<path d="M284.157,373.813c0,5.127-4.653,8.771-12.85,8.771c-1.727,0-3.714-0.133-4.649-0.49c-0.202-0.104-0.334-0.168-0.377-0.434
		l-0.633-6.025c-0.048-0.129,0.42-0.445,0.554-0.445c0.079,0,0.122,0.041,0.165,0.133c0.797,1.514,1.562,3.105,2.369,4.518
		c0.295,0.48,0.506,0.697,1.011,1.018c0.676,0.492,1.726,0.697,2.859,0.697c3.645,0,6.393-1.859,6.393-4.719
		c0-2.65-1.824-4.27-6.177-5.99c-4.468-1.766-6.714-3.945-6.714-7.316c0-4.627,5.244-8.922,12.26-8.922
		c1.726,0,3.414,0.217,4.179,0.617c0.198,0.094,0.284,0.16,0.284,0.375l0.508,5.777c0,0.129-0.378,0.398-0.548,0.398
		c-0.078,0-0.129,0-0.156-0.104c-0.803-1.578-1.608-3.172-2.456-4.723c-0.167-0.32-0.333-0.537-0.798-0.803
		c-0.548-0.297-1.235-0.547-2.289-0.547c-2.99,0-5.563,2.061-5.563,4.844c0,2.402,1.593,3.713,5.19,5.584
		c3.963,1.902,7.438,3.906,7.438,7.746V373.813z"/>
	<path d="M309.664,361.506c0,0.166-0.324,0.354-0.498,0.354c-0.037,0-0.083-0.047-0.126-0.084l-1.865-4.477
		c-0.211-0.469-0.421-0.736-0.848-0.887c-1.438-0.441-4.383-0.658-5.151-0.709c-0.128,2.619-0.295,10.098-0.367,12.449
		c-0.047,2.488-0.175,10.752-0.175,12.521c0,0.457,0.175,0.545,0.454,0.576l2.113,0.41c0.144,0,0.226,0.266,0.226,0.525
		c0,0.096,0,0.127-0.138,0.127c-0.926-0.031-3.249-0.088-5.699-0.088c-2.231,0-4.297,0.057-5.241,0.088
		c-0.116,0-0.116-0.031-0.116-0.088c0-0.234,0.084-0.564,0.204-0.564l2.153-0.441c0.287-0.037,0.343-0.172,0.343-0.637
		c0.039-1.744-0.122-10.516-0.16-12.613c0-1.777-0.183-10.002-0.216-12.266c-0.72,0.051-3.635,0.268-5.075,0.66
		c-0.42,0.145-0.676,0.41-0.93,0.936l-1.933,4.422c-0.054,0.092-0.093,0.139-0.171,0.139c-0.127,0-0.52-0.215-0.52-0.354
		l0.438-6.498c0-0.184,0.082-0.316,0.287-0.316c0.338,0,1.14,0.051,2.874,0.133c1.77,0.027,4.438,0.133,8.408,0.133
		c3.844,0,6.504-0.055,8.271-0.133c1.775-0.043,2.654-0.082,2.959-0.082c0.174,0,0.256,0.082,0.256,0.303L309.664,361.506z"/>
	<path d="M322.141,354.957c0.132,0,0.132,0,0.132,0.088c0,0.301-0.087,0.604-0.206,0.604l-1.902,0.322
		c-0.338,0.045-0.515,0.176-0.554,0.592c-0.376,3.912-0.466,8.225-0.466,13.398c0,7.943,1.992,11.773,5.241,11.773
		c3.631,0,4.933-3.053,4.933-12c0-4.588-0.079-10.123-0.41-13.105c-0.054-0.441-0.216-0.564-0.51-0.658l-1.947-0.322
		c-0.161,0-0.206-0.33-0.206-0.568c0-0.072,0-0.123,0.133-0.123h10.084c0.087,0,0.129,0.051,0.129,0.123
		c0,0.305-0.129,0.568-0.258,0.623l-1.266,0.268c-0.337,0.094-0.465,0.217-0.419,0.619c0.259,3.328,0.63,7.311,0.63,13.035
		c-0.045,8.748-4.648,12.959-11.822,12.959c-6.254,0-10.819-2.424-10.819-12.65c0.045-5.736,0.852-11.756,0.975-13.211
		c0.088-0.443-0.078-0.658-0.505-0.752l-1.438-0.322c-0.115,0-0.21-0.303-0.21-0.568c0-0.072,0-0.123,0.132-0.123H322.141z"/>
	<path d="M338.592,356.016c-0.132,0-0.26-0.313-0.26-0.525c0-0.105,0-0.172,0.128-0.172c1.955-0.273,6.819-0.627,10.482-0.627
		c9.229,0,14.614,4.113,14.614,12.486c0,9.551-6.551,15.135-15.296,15.135c-1.261,0-4.001-0.088-4.987-0.088
		c-1.638,0-3.374,0.057-4.47,0.088c-0.123,0-0.123-0.031-0.123-0.127c0-0.242,0.073-0.525,0.216-0.525l1.85-0.41
		c0.281-0.031,0.508-0.176,0.508-0.668c0.079-1.715-0.038-10.25-0.093-12.109c0-1.965-0.134-10.244-0.166-11.615
		c0-0.445-0.087-0.621-0.422-0.67L338.592,356.016z M348.515,381.516c3.677,0,8.491-3.143,8.491-14.215
		c0-7.037-2.968-11.783-8.367-11.783c-0.754,0-0.925,0.236-0.97,0.762c-0.295,3.012-0.71,23.111-0.636,24.445
		c0,0.494,0.558,0.791,1.436,0.791H348.515z"/>
	<path d="M377.077,354.957c0.097,0,0.097,0.051,0.097,0.162c0,0.199-0.056,0.584-0.229,0.635l-1.644,0.311
		c-0.28,0.043-0.404,0.266-0.404,0.613c-0.227,2.834-0.346,10.141-0.387,12.188c-0.05,1.635-0.172,11.295-0.172,11.859
		c0,0.35,0.172,0.457,0.466,0.525l1.727,0.41c0.17,0.018,0.242,0.33,0.242,0.525c0,0.096-0.037,0.127-0.11,0.127
		c-0.717-0.031-2.994-0.088-5.361-0.088c-2.19,0-4.101,0.057-5.07,0.088c-0.089,0-0.089-0.031-0.089-0.127
		c0-0.242,0.089-0.525,0.211-0.58l1.952-0.387c0.295-0.037,0.377-0.172,0.377-0.588c0.028-1.764-0.082-9.262-0.119-12.258
		c-0.041-3.199-0.134-10.145-0.216-11.424c0-0.492-0.125-0.803-0.465-0.885l-1.619-0.311c-0.121-0.051-0.204-0.318-0.204-0.674
		c0-0.072,0-0.123,0.083-0.123H377.077z"/>
	<path d="M391.505,382.584c-7.482,0-11.915-4.479-11.915-12.785c0-8.836,4.938-15.191,13.379-15.191
		c7.475,0,11.487,5.311,11.487,12.742c0,9.354-4.473,15.234-12.923,15.234H391.505z M392.342,381.734
		c3.891,0,5.413-5.383,5.413-13.633c0-6.457-1.942-12.717-5.725-12.717c-3.585,0-5.815,5.268-5.815,13.924
		c0,6.451,2.275,12.426,6.081,12.426H392.342z"/>
</g>
</svg>
